# xmcd
#
# Track frame offsets: 
#        150
#        19053
#        33865
#        49285
#        63465
#        79975
#        99735
#        112473
#        132253
#        143438
#        153940
#        167833
#
# Disc length: 2504 seconds
#
# Revision: 2
# Processed by: cddbd v1.5.2PL0 Copyright (c) Steve Scherf et al.
# Submitted via: ExactAudioCopy v0.99pb5
#
DISCID=a309c60c
DTITLE=K D Lang And The Reclines - Absolute Torch And Twang
DYEAR=1989
DGENRE=Country
TTITLE0=Luck in My Eyes
TTITLE1=Three Days
TTITLE2=Trail of Broken Hearts
TTITLE3=Big Boned Gal
TTITLE4=Didn't I
TTITLE5=Wallflower Waltz
TTITLE6=Full Moon Full of Love
TTITLE7=Pullin' Back The Reins
TTITLE8=Big Big Love
TTITLE9=It's Me
TTITLE10=Walkin'in And Out of Your Arms
TTITLE11=Nowhere to Stand
EXTD=
EXTT0=
EXTT1=
EXTT2=
EXTT3=
EXTT4=
EXTT5=
EXTT6=
EXTT7=
EXTT8=
EXTT9=
EXTT10=
EXTT11=
PLAYORDER=
